HIERARCHY
ROOT hip
{
	OFFSET 0.000000 0.000000 0.000000 
	CHANNELS 6 Xposition Yposition Zposition Xrotation Zrotation Yrotation
	JOINT abdomen
	{
		OFFSET 0.000000 3.402643 0.000000 
		CHANNELS 3 Xrotation Zrotation Yrotation
		JOINT chest
		{
			OFFSET 0.000000 8.438565 -0.680529 
			CHANNELS 3 Xrotation Zrotation Yrotation
			JOINT neck
			{
				OFFSET 0.000000 10.207942 -0.272212 
				CHANNELS 3 Xrotation Zrotation Yrotation
				JOINT head
				{
					OFFSET 0.000000 3.130431 0.000000 
					CHANNELS 3 Xrotation Zrotation Yrotation
					End Site
					{
						OFFSET 0.000000 3.130435 0.000000 
					}
				}
			}
			JOINT lCollar
			{
				OFFSET 3.470700 6.669187 -0.816635 
				CHANNELS 3 Yrotation Zrotation Xrotation
				JOINT lShldr
				{
					OFFSET 3.198488 0.000000 0.000000 
					CHANNELS 3 Zrotation Yrotation Xrotation
					JOINT lForeArm
					{
						OFFSET 10.139888 0.000000 0.000000 
						CHANNELS 3 Yrotation Zrotation Xrotation
						JOINT lHand
						{
							OFFSET 8.370511 0.000000 0.000000 
							CHANNELS 3 Zrotation Yrotation Xrotation
							End Site
							{
								OFFSET 4.083176 0.000000 0.000000 
							}
						}
					}
				}
			}
			JOINT rCollar
			{
				OFFSET -3.470700 6.669187 -0.816635 
				CHANNELS 3 Yrotation Zrotation Xrotation
				JOINT rShldr
				{
					OFFSET -3.198488 0.000000 0.000000 
					CHANNELS 3 Zrotation Yrotation Xrotation
					JOINT rForeArm
					{
						OFFSET -10.139888 0.000000 0.000000 
						CHANNELS 3 Yrotation Zrotation Xrotation
						JOINT rHand
						{
							OFFSET -8.370511 0.000000 0.000000 
							CHANNELS 3 Zrotation Yrotation Xrotation
							End Site
							{
								OFFSET -4.083176 0.000000 0.000000 
							}
						}
					}
				}
			}
		}
	}
	JOINT lThigh
	{
		OFFSET 5.308129 -1.633274 1.361059 
		CHANNELS 3 Xrotation Zrotation Yrotation
		JOINT lShin
		{
			OFFSET -2.041588 -20.007561 0.000000 
			CHANNELS 3 Xrotation Zrotation Yrotation
			JOINT lFoot
			{
				OFFSET 0.000000 -19.190928 -1.224953 
				CHANNELS 3 Xrotation Yrotation Zrotation
				End Site
				{
					OFFSET 0.000000 -2.449906 4.627600 
				}
			}
		}
	}
	JOINT rThigh
	{
		OFFSET -5.308129 -1.633274 1.361059 
		CHANNELS 3 Xrotation Zrotation Yrotation
		JOINT rShin
		{
			OFFSET 2.041588 -20.007561 0.000000 
			CHANNELS 3 Xrotation Zrotation Yrotation
			JOINT rFoot
			{
				OFFSET 0.000000 -19.190928 -1.224953 
				CHANNELS 3 Xrotation Yrotation Zrotation
				End Site
				{
					OFFSET 0.000000 -2.449906 4.627600 
				}
			}
		}
	}
}
MOTION
Frames: 8
Frame Time: 0.011111
21.606653 49.431705 -5.551346 -6.250063 6.003395 -90.405106 58.685875 -4.624851 -0.628013 -29.669977 -1.226601 0.371580 -27.388737 6.874883 6.793474 42.780861 -20.373087 9.061951 3.554561 -11.856053 1.830316 -60.102207 -48.121223 47.399960 -83.251610 4.527604 24.755125 8.524705 12.647240 -35.345108 1.017460 16.414410 0.108193 56.195110 34.679325 22.572912 84.835953 -3.102153 26.332178 -8.534408 -12.637552 58.353367 -31.932619 15.477983 9.938404 52.277889 -3.566350 -7.422864 -21.251480 -3.313966 -3.877498 -28.209162 -27.222111 -6.720508 51.405033 3.652328 7.321671 -28.695486 -0.040585 1.810485 
21.649723 49.419632 -5.691647 -6.447733 6.125784 -90.125237 58.641567 -4.659213 -0.735847 -29.591921 -1.249446 0.353661 -27.411707 7.087111 6.814715 43.317558 -20.798567 8.929497 3.554561 -11.856053 1.830316 -60.080715 -48.258698 47.269806 -83.284691 4.503789 24.778728 8.524705 12.647240 -35.061901 1.017460 16.414410 0.108193 56.211239 34.748241 22.553148 84.841583 -3.094641 26.342402 -8.534408 -12.637552 58.372906 -32.052387 15.345683 9.917501 52.130424 -3.587986 -7.410975 -20.973017 -3.449484 -3.946518 -28.466482 -27.401915 -6.854330 51.709709 3.613266 7.348827 -28.862579 -0.074316 1.776273 
21.676477 49.406258 -5.832599 -6.777591 6.132676 -90.002289 58.715160 -4.928645 -0.873052 -29.474821 -1.285756 0.376416 -27.445292 7.084047 6.879680 43.777908 -20.745661 8.977448 3.554561 -11.856053 1.830316 -60.071495 -48.581539 47.244629 -83.245476 4.534608 24.744915 8.524705 12.647240 -34.407604 1.017460 16.414410 0.108193 56.255867 34.827831 22.439568 84.855415 -3.080129 26.354006 -8.534408 -12.637552 58.285015 -31.928621 15.143013 10.039901 51.903934 -3.617409 -7.405112 -20.759132 -3.513300 -3.974821 -28.708614 -27.663263 -6.833741 51.984352 3.593791 7.372401 -28.883972 -0.145551 1.714545 
21.663752 49.393856 -6.049576 -6.511587 5.975272 -90.194626 58.805504 -5.223165 -0.476672 -29.445059 -1.176619 0.507023 -27.190861 7.189444 6.962054 43.803333 -21.140373 9.001994 3.554561 -11.856053 1.830316 -60.156551 -48.637714 47.117123 -83.235428 4.539071 24.734316 8.524705 12.647240 -34.222054 1.017460 16.414410 0.108193 56.259060 34.759525 22.380970 84.873734 -3.057569 26.375900 -8.534408 -12.637552 58.294777 -31.822241 15.856634 10.201709 51.708813 -3.624876 -7.363249 -20.472916 -3.723798 -4.053989 -28.610346 -26.852190 -6.446733 52.160877 3.556803 7.408584 -29.064770 -0.526922 1.503338 
21.638956 49.412453 -6.157575 -6.696591 5.880373 -89.974075 58.893314 -5.185217 -0.571661 -29.386690 -1.241000 0.476145 -27.129065 7.327250 7.059791 44.129215 -21.396648 9.107949 3.554561 -11.856053 1.830316 -60.262302 -48.546669 46.878014 -83.284691 4.503789 24.778728 8.524705 12.647240 -34.329475 1.017460 16.414410 0.108193 56.212605 34.718964 22.455494 84.906563 -3.021385 26.418562 -8.534408 -12.637552 58.402203 -31.533108 15.625190 10.149865 51.511345 -3.659967 -7.363098 -20.415020 -3.655585 -4.054870 -28.337551 -27.096878 -6.761284 52.239941 3.554743 7.394868 -29.121990 -0.377369 1.586172 
21.603390 49.446712 -6.248282 -6.754803 5.792743 -89.803581 58.890568 -5.020550 -0.546111 -29.270031 -1.392664 0.457019 -27.131689 7.491353 7.206686 44.659031 -21.626772 9.271381 3.554561 -11.856053 1.830316 -60.332005 -48.525089 46.645283 -83.322922 4.472295 24.812616 8.524705 12.647240 -34.339245 1.017460 16.414410 0.108193 56.153763 34.736660 22.622225 84.946007 -2.978014 26.471891 -8.534408 -12.637552 58.519386 -31.274387 15.514124 10.085152 51.354866 -3.664099 -7.341995 -20.405788 -3.619499 -4.010298 -28.026499 -27.244967 -7.181710 52.288986 3.544959 7.404050 -29.186857 -0.143411 1.706064 
21.647440 49.440838 -6.411748 -6.730079 5.926224 -89.357780 58.844997 -4.789496 -0.650211 -29.309206 -1.410860 0.401522 -26.922459 7.765766 7.268525 44.936424 -21.949476 9.319589 3.554561 -11.856053 1.830316 -60.323807 -48.554649 46.457050 -83.340454 4.461637 24.834057 8.524705 12.647240 -34.231819 1.017460 16.414410 0.108193 56.199303 34.796730 22.752781 84.939049 -2.984976 26.461231 -8.534408 -12.637552 58.538921 -31.565084 15.541758 9.785432 51.227684 -3.675436 -7.317445 -20.127985 -3.733196 -4.064669 -28.003408 -27.211399 -7.591315 52.425663 3.544997 7.425098 -29.324289 -0.143631 1.660236 
21.699972 49.431705 -6.582393 -6.819903 6.068776 -88.937881 58.806686 -4.702751 -0.801238 -29.387472 -1.437058 0.358165 -26.780064 7.996153 7.326027 45.169014 -22.206255 9.373303 3.554561 -11.856053 1.830316 -60.343445 -48.544304 46.359867 -83.379921 4.430860 24.867794 8.524705 12.647240 -34.143932 1.017460 16.414410 0.108193 56.275635 34.818684 22.751825 84.932579 -2.992147 26.451052 -8.534408 -12.637552 58.480324 -31.884569 15.488135 9.475352 51.060429 -3.685429 -7.317672 -19.775755 -3.725602 -4.075845 -28.099600 -27.248707 -7.858673 52.593338 3.515647 7.425258 -29.491501 -0.203349 1.618487 
